<svg width="30" height="30" viewBox="0 0 30 30" fill="none" xmlns="http://www.w3.org/2000/svg">
<circle cx="15" cy="15" r="15" fill="#F9F9F9"/>
<path d="M11 2C8.75781 2 7 3.75781 7 6C7 8.24219 8.75781 10 11 10C13.2422 10 15 8.24219 15 6C15 3.75781 13.2422 2 11 2ZM17.2031 4C17.1055 4 17.0039 4.02344 16.9219 4.07812L16.3438 4.48438L15.7812 4.07812C15.7285 4.04297 15.6719 4.0293 15.6094 4.01562C15.8652 4.62109 16 5.29102 16 6C16 6.71484 15.8535 7.39062 15.5938 8H20.5C20.6328 8 20.7656 7.95312 20.8594 7.85938L21.8594 6.85938C21.9531 6.76562 22 6.63281 22 6.5V5.5C22 5.36719 21.9531 5.23438 21.8594 5.14062L20.8594 4.14062C20.7656 4.04688 20.6328 4 20.5 4H19.6562C19.5234 4 19.4062 4.04688 19.3125 4.14062L18.75 4.71875L18.1875 4.14062C18.0938 4.04688 17.9609 4 17.8281 4H17.2031ZM10 5C10.5527 5 11 5.44727 11 6C11 6.55273 10.5527 7 10 7C9.44727 7 9 6.55273 9 6C9 5.44727 9.44727 5 10 5ZM9.84375 11C8.83398 11 7.91602 11.6211 7.54688 12.5469L6.0625 16H5.5C4.67383 16 4 16.6738 4 17.5C4 18.3262 4.67383 19 5.5 19V25.5C5.5 26.3262 6.17383 27 7 27H8.5C9.32617 27 10 26.3262 10 25.5V25H19V25.5C19 26.3262 19.6738 27 20.5 27H22C22.8262 27 23.5 26.3262 23.5 25.5V19C24.3262 19 25 18.3262 25 17.5C25 16.6738 24.3262 16 23.5 16H22.9375L21.4688 12.5625C21.0957 11.627 20.166 11 19.1562 11H9.84375ZM9.84375 12H19.1562C19.7617 12 20.3184 12.3828 20.5469 12.9531L21.9531 16.2656L21.4688 16.5938C21.0762 16.8691 20.6172 17 20.0938 17H8.90625C8.38281 17 7.93359 16.8594 7.53125 16.5781L7.04688 16.2656L8.46875 12.9375C8.69336 12.3789 9.23828 12 9.84375 12ZM9.25 20C9.94922 20 10.5 20.5508 10.5 21.25C10.5 21.9492 9.94922 22.5 9.25 22.5C8.55078 22.5 8 21.9492 8 21.25C8 20.5508 8.55078 20 9.25 20ZM19.75 20C20.4492 20 21 20.5508 21 21.25C21 21.9492 20.4492 22.5 19.75 22.5C19.0508 22.5 18.5 21.9492 18.5 21.25C18.5 20.5508 19.0508 20 19.75 20Z" fill="black"/>
</svg>
