<svg width="32" height="32" viewBox="0 0 32 32" fill="none" xmlns="http://www.w3.org/2000/svg">
<path d="M16.8114 11.8669C16.8114 11.3207 16.3686 10.878 15.8225 10.878C15.2763 10.878 14.8336 11.3207 14.8336 11.8669V14.8336H11.8668C11.3207 14.8336 10.8779 15.2764 10.8779 15.8225C10.8779 16.3687 11.3207 16.8114 11.8668 16.8114H14.8336V19.7782C14.8336 20.3243 15.2763 20.7671 15.8225 20.7671C16.3686 20.7671 16.8114 20.3243 16.8114 19.7782V16.8114H19.7781C20.3242 16.8114 20.767 16.3687 20.767 15.8225C20.767 15.2764 20.3242 14.8336 19.7781 14.8336H16.8114V11.8669Z" fill="#A8D5BA"/>
<path fill-rule="evenodd" clip-rule="evenodd" d="M15.8223 1.64819C7.99402 1.64819 1.64795 7.99427 1.64795 15.8225C1.64795 23.6509 7.99402 29.9969 15.8223 29.9969C23.6506 29.9969 29.9966 23.6509 29.9966 15.8225C29.9966 7.99427 23.6506 1.64819 15.8223 1.64819ZM3.62576 15.8225C3.62576 9.08659 9.08634 3.62601 15.8223 3.62601C22.5582 3.62601 28.0188 9.08659 28.0188 15.8225C28.0188 22.5585 22.5582 28.0191 15.8223 28.0191C9.08634 28.0191 3.62576 22.5585 3.62576 15.8225Z" fill="#A8D5BA"/>
</svg>
