<svg width="34" height="34" viewBox="0 0 34 34" fill="none" xmlns="http://www.w3.org/2000/svg">
<g filter="url(#filter0_d_31_2329)">
<circle cx="17" cy="15" r="15" fill="#EF6713"/>
<circle cx="17" cy="15" r="14.5" stroke="#F9F9F9"/>
</g>
<mask id="path-3-inside-1_31_2329" fill="white">
<path d="M16.05 9V13.3869H12V16.3116H16.05V20.6985H18.75V16.3116H22.8V13.3869H18.75V9H16.05Z"/>
</mask>
<path d="M16.05 9V13.3869H12V16.3116H16.05V20.6985H18.75V16.3116H22.8V13.3869H18.75V9H16.05Z" fill="#F9F9F9"/>
<path d="M16.05 9V0.624101H7.6741V9H16.05ZM16.05 13.3869V21.7628H24.4259V13.3869H16.05ZM12 13.3869V5.01104H3.6241V13.3869H12ZM12 16.3116H3.6241V24.6875H12V16.3116ZM16.05 16.3116H24.4259V7.93566H16.05V16.3116ZM16.05 20.6985H7.6741V29.0744H16.05V20.6985ZM18.75 20.6985V29.0744H27.1259V20.6985H18.75ZM18.75 16.3116V7.93566H10.3741V16.3116H18.75ZM22.8 16.3116V24.6875H31.1759V16.3116H22.8ZM22.8 13.3869H31.1759V5.01104H22.8V13.3869ZM18.75 13.3869H10.3741V21.7628H18.75V13.3869ZM18.75 9H27.1259V0.624101H18.75V9ZM16.05 9H7.6741V13.3869H16.05H24.4259V9H16.05ZM16.05 13.3869V5.01104H12V13.3869V21.7628H16.05V13.3869ZM12 13.3869H3.6241V16.3116H12H20.3759V13.3869H12ZM12 16.3116V24.6875H16.05V16.3116V7.93566H12V16.3116ZM16.05 16.3116H7.6741V20.6985H16.05H24.4259V16.3116H16.05ZM16.05 20.6985V29.0744H18.75V20.6985V12.3226H16.05V20.6985ZM18.75 20.6985H27.1259V16.3116H18.75H10.3741V20.6985H18.75ZM18.75 16.3116V24.6875H22.8V16.3116V7.93566H18.75V16.3116ZM22.8 16.3116H31.1759V13.3869H22.8H14.4241V16.3116H22.8ZM22.8 13.3869V5.01104H18.75V13.3869V21.7628H22.8V13.3869ZM18.75 13.3869H27.1259V9H18.75H10.3741V13.3869H18.75ZM18.75 9V0.624101H16.05V9V17.3759H18.75V9Z" fill="#F9F9F9" mask="url(#path-3-inside-1_31_2329)"/>
<defs>
<filter id="filter0_d_31_2329" x="0" y="0" width="34" height="34" filterUnits="userSpaceOnUse" color-interpolation-filters="sRGB">
<feFlood flood-opacity="0" result="BackgroundImageFix"/>
<feColorMatrix in="SourceAlpha" type="matrix" values="0 0 0 0 0 0 0 0 0 0 0 0 0 0 0 0 0 0 127 0" result="hardAlpha"/>
<feOffset dy="2"/>
<feGaussianBlur stdDeviation="1"/>
<feComposite in2="hardAlpha" operator="out"/>
<feColorMatrix type="matrix" values="0 0 0 0 0 0 0 0 0 0 0 0 0 0 0 0 0 0 0.25 0"/>
<feBlend mode="normal" in2="BackgroundImageFix" result="effect1_dropShadow_31_2329"/>
<feBlend mode="normal" in="SourceGraphic" in2="effect1_dropShadow_31_2329" result="shape"/>
</filter>
</defs>
</svg>
