<svg width="49" height="49" viewBox="0 0 49 49" fill="none" xmlns="http://www.w3.org/2000/svg">
<g clip-path="url(#clip0_262_1081)">
<path d="M24.5 0C38.031 0 49 10.969 49 24.5C49 38.031 38.031 49 24.5 49C10.969 49 0 38.031 0 24.5C0 10.969 10.969 0 24.5 0ZM23.5044 29.3819C16.8567 29.8546 11.5832 35.0236 11.3302 41.4163C14.9643 44.2496 19.535 45.9375 24.5 45.9375C29.4646 45.9375 34.0351 44.2499 37.669 41.417C37.417 35.0326 32.1574 29.8688 25.5224 29.3839L25.5225 29.3845C25.1935 29.4138 24.8605 29.4287 24.5239 29.4287C24.1803 29.4287 23.8402 29.4131 23.5044 29.3826V29.3819ZM24.5 3.0625C12.6604 3.0625 3.0625 12.6604 3.0625 24.5C3.0625 30.048 5.17003 35.1038 8.62821 38.9104C9.67382 33.8213 13.3397 29.6287 18.23 27.6644L18.404 27.5957L18.3144 27.5359C15.3489 25.5376 13.3984 22.1482 13.3984 18.3032C13.3984 12.1588 18.3795 7.17773 24.5239 7.17773C30.6684 7.17773 35.6494 12.1588 35.6494 18.3032C35.6494 22.1558 33.6912 25.5511 30.7158 27.5479L30.6259 27.6075L30.801 27.6771C35.6756 29.6467 39.3282 33.8325 40.3714 38.9105C43.8298 35.1042 45.9375 30.0482 45.9375 24.5C45.9375 12.6604 36.3396 3.0625 24.5 3.0625ZM24.5239 10.1745C20.0345 10.1745 16.3952 13.8138 16.3952 18.3032C16.3952 22.7926 20.0345 26.432 24.5239 26.432C29.0133 26.432 32.6527 22.7926 32.6527 18.3032C32.6527 13.8138 29.0133 10.1745 24.5239 10.1745Z" fill="#171717"/>
</g>
<defs>
<clipPath id="clip0_262_1081">
<rect width="49" height="49" fill="white"/>
</clipPath>
</defs>
</svg>
