<svg width="113" height="113" viewBox="0 0 113 113" fill="none" xmlns="http://www.w3.org/2000/svg">
<path d="M48.6205 24.5894C71.6611 27.8333 81.4301 20.0779 83.8636 48.2312C93.9906 47.5009 96.4734 57.6536 94.2998 65.7514C95.8073 68.9087 96.1854 72.9869 93.1494 75.5044C86.7454 77.787 89.8071 74.0517 87.9838 83.4034C87.4385 85.8708 85.8752 88.8501 82.8761 88.3937C78.6072 88.3136 74.4136 86.6331 75.4186 81.594C75.6645 79.8047 75.7114 77.9877 75.8513 76.1477C61.9393 76.1477 48.0866 76.1477 34.049 76.1477C33.9346 78.8531 34.447 81.8181 33.5389 84.4739C32.5507 87.8822 28.9279 88.205 25.937 87.578C19.8797 86.7458 21.3583 80.1318 21.5479 75.7014C16.9466 76.5078 14.2001 69.7942 17.3257 66.5642C18.307 66.0994 15.3977 63.1695 15.5552 61.4919C13.7358 53.9054 17.2708 46.8956 25.8752 47.6536C26.3134 47.6406 26.5303 47.5146 26.6533 47.0623C31.1348 33.7145 31.7437 23.9488 48.6205 24.5894ZM33.8947 47.4512C34.0002 42.5249 39.9283 39.7964 44.2781 41.2315C50.798 42.7723 49.3752 46.8953 51.8585 47.822C60.8278 47.7843 69.8148 48.1919 78.7696 48.0976C77.4789 43.5972 77.6526 32.5532 71.8946 31.931C61.8779 30.9173 51.6857 29.1293 41.6339 30.4001C35.1207 31.8179 34.4456 40.458 31.8477 45.5543C30.3904 48.0703 31.7098 47.3769 33.8947 47.4512ZM20.5505 70.2115C41.7037 71.5661 62.8956 70.3342 84.0591 71.3296C85.4829 71.0348 91.361 72.3323 90.8772 70.284C90.9112 69.859 90.9113 69.3359 90.2443 69.2922C77.3678 68.1902 64.4293 69.0584 51.5348 68.0603C46.7343 68.1437 20.9256 66.0834 20.5505 70.2115ZM85.312 58.3558C85.2812 54.0314 79.5145 55.2933 78.9672 58.7096C78.1774 63.9276 85.667 62.9749 85.312 58.3558ZM80.2255 76.3134C80.1121 78.338 79.9974 80.4074 79.8794 82.4767C79.9785 83.8503 81.9655 83.3188 82.9699 83.7009C83.8694 81.3192 83.9159 78.8728 83.8447 76.3134C82.6136 76.3134 81.4507 76.3134 80.2255 76.3134ZM29.0482 62.9169C31.5333 61.3226 31.4518 54.6502 27.4622 56.9286C24.7465 59.2975 25.8581 61.859 29.0482 62.9169ZM26.2426 75.7545C26.2426 77.3995 26.228 79.0181 26.2461 80.6363C26.2715 82.8942 26.2374 82.5867 28.1323 82.793C28.6959 82.8543 28.9554 82.7244 28.9578 82.1802C28.967 80.059 28.9616 77.9378 28.9616 75.7546C28.1948 75.7545 27.3506 75.7545 26.2426 75.7545ZM39.0987 47.547C41.4564 47.547 43.7548 47.547 46.0811 47.547C44.3213 45.1469 40.409 45.1057 39.0987 47.547Z" fill="black"/>
<path d="M108.255 40.2759C106.469 44.1268 103.322 47.1915 100.934 50.6846C100.207 51.7983 98.6884 52.32 97.5943 51.5571C94.1083 48.7414 102.203 42.2242 103.565 39.2106C104.874 37.1796 108.024 37.6148 108.255 40.2759Z" fill="black"/>
<path d="M23.1478 41.6823C23.3496 44.8377 19.4598 45.4363 18.6958 42.5226C18.4661 39.0528 13.5204 31.4093 17.8493 29.5651C22.4681 28.72 22.0063 38.6068 23.1478 41.6823Z" fill="black"/>
<path d="M7.34625 44.2643C9.35812 45.0532 13.9733 48.2954 13.0168 50.7747C10.9809 54.7871 7.24479 49.8407 5.27706 48.1754C3.98356 46.745 5.46916 44.348 7.34625 44.2643Z" fill="black"/>
<path d="M92.9828 39.3951C92.4328 41.3911 93.2297 45.6135 90.2791 45.5894C87.5683 45.1495 88.5272 41.1438 88.2173 39.1244C88.2605 35.6855 93.2374 35.9888 92.9828 39.3951Z" fill="black"/>
<path d="M33.8947 47.4512C31.7769 47.3575 30.341 48.1 31.8486 45.5548C34.4364 40.4599 35.1275 31.8168 41.6333 30.4002C51.6857 29.129 61.8776 30.9177 71.894 31.9308C77.6707 32.5639 77.4649 43.5851 78.7702 48.0972C69.8148 48.1919 60.8278 47.7843 51.8591 47.8215C49.4008 46.9236 50.7628 42.7437 44.2781 41.2321C39.9238 39.7965 34.0031 42.5249 33.8947 47.4512Z" fill="white"/>
<path d="M20.5502 70.2117C20.8824 66.0844 46.7851 68.1438 51.5342 68.0595C64.4291 69.0586 77.3675 68.1903 90.244 69.2923C90.911 69.3361 90.911 69.8592 90.877 70.2838C91.3948 72.3387 85.3887 71.0308 84.0589 71.3306C62.8955 70.3343 41.7034 71.5664 20.5502 70.2117Z" fill="white"/>
<path d="M85.3118 58.3558C85.6657 62.9766 78.1767 63.9261 78.9668 58.7094C79.5137 55.293 85.2813 54.0316 85.3118 58.3558Z" fill="white"/>
<path d="M80.2256 76.3136C81.4507 76.3136 82.6137 76.3136 83.8449 76.3136C83.9161 78.873 83.8696 81.3193 82.9702 83.7009C81.9661 83.3219 79.9787 83.848 79.8793 82.4772C79.9975 80.4076 80.1122 78.3382 80.2256 76.3136Z" fill="white"/>
<path d="M26.2426 75.7545C27.3506 75.7545 28.1948 75.7545 28.9614 75.7545C28.9614 77.9377 28.9668 80.0589 28.9576 82.1801C28.9553 82.7244 28.6957 82.8543 28.1322 82.7929C26.2373 82.5865 26.2713 82.8941 26.246 80.6362C26.228 79.0181 26.2426 77.3996 26.2426 75.7545Z" fill="white"/>
<path d="M39.0984 47.5471C40.4088 45.1058 44.3211 45.147 46.0808 47.5471C43.7545 47.5471 41.4561 47.5471 39.0984 47.5471Z" fill="white"/>
<path d="M31.7044 58.9214C32.0582 63.5423 24.5693 64.4917 25.3593 59.275C25.9063 55.8586 31.6739 54.5972 31.7044 58.9214Z" fill="white"/>
</svg>
